<svg width="52" height="52" viewBox="0 0 52 52" fill="none" xmlns="http://www.w3.org/2000/svg">
<path d="M22.8584 39.4333L34.0709 25.9999H25.4042L26.975 13.7041L16.9542 28.1666H24.4834L22.8584 39.4333ZM19.5 32.4999H12.7834C11.9167 32.4999 11.2754 32.1121 10.8594 31.3364C10.4434 30.5607 10.4889 29.8111 10.9959 29.0874L27.1917 5.79574C27.5528 5.29019 28.0223 4.93847 28.6 4.74058C29.1778 4.54269 29.7736 4.55136 30.3875 4.76658C31.0014 4.9818 31.4528 5.36097 31.7417 5.90408C32.0306 6.44719 32.1389 7.02497 32.0667 7.63741L30.3334 21.6666H38.7292C39.6681 21.6666 40.3275 22.0819 40.7074 22.9124C41.0873 23.743 40.9695 24.5194 40.3542 25.2416L22.5334 46.5832C22.1361 47.0527 21.6486 47.3596 21.0709 47.5041C20.4931 47.6485 19.9334 47.5944 19.3917 47.3416C18.85 47.0888 18.4261 46.701 18.1199 46.1781C17.8136 45.6552 17.6959 45.0861 17.7667 44.4707L19.5 32.4999Z" fill="white"/>
</svg>
