<svg width="195" height="11" viewBox="0 0 195 11" fill="none" xmlns="http://www.w3.org/2000/svg">
<path d="M7.16533 3.168C7.16533 3.66267 7.04866 4.12933 6.81533 4.568C6.58199 5.00667 6.20866 5.366 5.69533 5.646C5.18199 5.91667 4.52399 6.052 3.72133 6.052H1.95733V10H0.361325V0.269999H3.72133C4.46799 0.269999 5.09799 0.400666 5.61133 0.661999C6.13399 0.913999 6.52133 1.25933 6.77333 1.698C7.03466 2.13667 7.16533 2.62667 7.16533 3.168ZM3.72133 4.75C4.32799 4.75 4.78066 4.61467 5.07933 4.344C5.37799 4.064 5.52733 3.672 5.52733 3.168C5.52733 2.104 4.92533 1.572 3.72133 1.572H1.95733V4.75H3.72133ZM16.5415 10L14.3015 6.108H13.0835V10H11.4875V0.269999H14.8475C15.5942 0.269999 16.2242 0.400666 16.7375 0.661999C17.2602 0.923333 17.6475 1.27333 17.8995 1.712C18.1608 2.15067 18.2915 2.64067 18.2915 3.182C18.2915 3.81667 18.1048 4.39533 17.7315 4.918C17.3675 5.43133 16.8028 5.78133 16.0375 5.968L18.4455 10H16.5415ZM13.0835 4.834H14.8475C15.4448 4.834 15.8928 4.68467 16.1915 4.386C16.4995 4.08733 16.6535 3.686 16.6535 3.182C16.6535 2.678 16.5042 2.286 16.2055 2.006C15.9068 1.71667 15.4542 1.572 14.8475 1.572H13.0835V4.834ZM27.5712 10.098C26.6659 10.098 25.8305 9.888 25.0652 9.468C24.3092 9.03867 23.7072 8.446 23.2592 7.69C22.8205 6.92467 22.6012 6.066 22.6012 5.114C22.6012 4.162 22.8205 3.308 23.2592 2.552C23.7072 1.796 24.3092 1.208 25.0652 0.787999C25.8305 0.358666 26.6659 0.143999 27.5712 0.143999C28.4859 0.143999 29.3212 0.358666 30.0772 0.787999C30.8425 1.208 31.4445 1.796 31.8832 2.552C32.3219 3.308 32.5412 4.162 32.5412 5.114C32.5412 6.066 32.3219 6.92467 31.8832 7.69C31.4445 8.446 30.8425 9.03867 30.0772 9.468C29.3212 9.888 28.4859 10.098 27.5712 10.098ZM27.5712 8.712C28.2152 8.712 28.7892 8.56733 29.2932 8.278C29.7972 7.97933 30.1892 7.55933 30.4692 7.018C30.7585 6.46733 30.9032 5.83267 30.9032 5.114C30.9032 4.39533 30.7585 3.76533 30.4692 3.224C30.1892 2.68267 29.7972 2.26733 29.2932 1.978C28.7892 1.68867 28.2152 1.544 27.5712 1.544C26.9272 1.544 26.3532 1.68867 25.8492 1.978C25.3452 2.26733 24.9485 2.68267 24.6592 3.224C24.3792 3.76533 24.2392 4.39533 24.2392 5.114C24.2392 5.83267 24.3792 6.46733 24.6592 7.018C24.9485 7.55933 25.3452 7.97933 25.8492 8.278C26.3532 8.56733 26.9272 8.712 27.5712 8.712ZM42.1197 5.002C42.6424 5.09533 43.0857 5.37067 43.4497 5.828C43.8137 6.28533 43.9957 6.80333 43.9957 7.382C43.9957 7.87667 43.8651 8.32467 43.6037 8.726C43.3517 9.118 42.9831 9.43067 42.4977 9.664C42.0124 9.888 41.4477 10 40.8037 10H36.9117V0.269999H40.6217C41.2844 0.269999 41.8537 0.381999 42.3297 0.606C42.8057 0.83 43.1651 1.13333 43.4077 1.516C43.6504 1.88933 43.7717 2.30933 43.7717 2.776C43.7717 3.336 43.6224 3.80267 43.3237 4.176C43.0251 4.54933 42.6237 4.82467 42.1197 5.002ZM38.5077 4.358H40.4817C41.0044 4.358 41.4104 4.24133 41.6997 4.008C41.9984 3.76533 42.1477 3.42 42.1477 2.972C42.1477 2.53333 41.9984 2.19267 41.6997 1.95C41.4104 1.698 41.0044 1.572 40.4817 1.572H38.5077V4.358ZM40.6637 8.698C41.2051 8.698 41.6297 8.56733 41.9377 8.306C42.2457 8.04467 42.3997 7.68067 42.3997 7.214C42.3997 6.738 42.2364 6.36 41.9097 6.08C41.5831 5.8 41.1491 5.66 40.6077 5.66H38.5077V8.698H40.6637ZM50.1261 8.712H53.4161V10H48.5301V0.269999H50.1261V8.712ZM59.1468 1.558V4.414H62.5068V5.716H59.1468V8.698H62.9268V10H57.5508V0.255999H62.9268V1.558H59.1468ZM77.9406 0.269999V10H76.3446V3.336L73.3766 10H72.2706L69.2886 3.336V10H67.6926V0.269999H69.4146L72.8306 7.9L76.2326 0.269999H77.9406ZM96.793 10L95.589 8.796C95.1223 9.26267 94.6137 9.61267 94.063 9.846C93.5123 10.07 92.8963 10.182 92.215 10.182C91.5243 10.182 90.913 10.0607 90.381 9.818C89.849 9.57533 89.4383 9.23 89.149 8.782C88.8597 8.32467 88.715 7.79733 88.715 7.2C88.715 6.528 88.9063 5.93067 89.289 5.408C89.6717 4.876 90.241 4.456 90.997 4.148C90.7263 3.82133 90.535 3.518 90.423 3.238C90.311 2.94867 90.255 2.63133 90.255 2.286C90.255 1.85667 90.3623 1.474 90.577 1.138C90.801 0.802 91.1183 0.535999 91.529 0.339999C91.9397 0.143999 92.4157 0.0459996 92.957 0.0459996C93.5077 0.0459996 93.9743 0.153333 94.357 0.368C94.749 0.573333 95.0383 0.858 95.225 1.222C95.421 1.586 95.5003 1.992 95.463 2.44H93.867C93.8763 2.09467 93.7923 1.82867 93.615 1.642C93.4377 1.446 93.195 1.348 92.887 1.348C92.579 1.348 92.327 1.44133 92.131 1.628C91.9443 1.80533 91.851 2.02467 91.851 2.286C91.851 2.538 91.921 2.79 92.061 3.042C92.2103 3.28467 92.467 3.602 92.831 3.994L95.407 6.556L96.401 4.918H98.123L96.863 7.074L96.513 7.648L98.879 10H96.793ZM92.215 8.824C93.0923 8.824 93.867 8.46467 94.539 7.746L91.963 5.156C90.8617 5.59467 90.311 6.25733 90.311 7.144C90.311 7.62 90.4883 8.02133 90.843 8.348C91.1977 8.66533 91.655 8.824 92.215 8.824ZM112.368 10.098C111.715 10.098 111.127 9.986 110.604 9.762C110.081 9.52867 109.671 9.202 109.372 8.782C109.073 8.362 108.924 7.872 108.924 7.312H110.632C110.669 7.732 110.833 8.07733 111.122 8.348C111.421 8.61867 111.836 8.754 112.368 8.754C112.919 8.754 113.348 8.62333 113.656 8.362C113.964 8.09133 114.118 7.746 114.118 7.326C114.118 6.99933 114.02 6.73333 113.824 6.528C113.637 6.32267 113.399 6.164 113.11 6.052C112.83 5.94 112.438 5.81867 111.934 5.688C111.299 5.52 110.781 5.352 110.38 5.184C109.988 5.00667 109.652 4.736 109.372 4.372C109.092 4.008 108.952 3.52267 108.952 2.916C108.952 2.356 109.092 1.866 109.372 1.446C109.652 1.026 110.044 0.704 110.548 0.48C111.052 0.255999 111.635 0.143999 112.298 0.143999C113.241 0.143999 114.011 0.381999 114.608 0.857999C115.215 1.32467 115.551 1.96867 115.616 2.79H113.852C113.824 2.43533 113.656 2.132 113.348 1.88C113.04 1.628 112.634 1.502 112.13 1.502C111.673 1.502 111.299 1.61867 111.01 1.852C110.721 2.08533 110.576 2.42133 110.576 2.86C110.576 3.15867 110.665 3.406 110.842 3.602C111.029 3.78867 111.262 3.938 111.542 4.05C111.822 4.162 112.205 4.28333 112.69 4.414C113.334 4.59133 113.857 4.76867 114.258 4.946C114.669 5.12333 115.014 5.39867 115.294 5.772C115.583 6.136 115.728 6.626 115.728 7.242C115.728 7.73667 115.593 8.20333 115.322 8.642C115.061 9.08067 114.673 9.43533 114.16 9.706C113.656 9.96733 113.059 10.098 112.368 10.098ZM124.849 10.098C123.944 10.098 123.109 9.888 122.343 9.468C121.587 9.03867 120.985 8.446 120.537 7.69C120.099 6.92467 119.879 6.066 119.879 5.114C119.879 4.162 120.099 3.308 120.537 2.552C120.985 1.796 121.587 1.208 122.343 0.787999C123.109 0.358666 123.944 0.143999 124.849 0.143999C125.764 0.143999 126.599 0.358666 127.355 0.787999C128.121 1.208 128.723 1.796 129.161 2.552C129.6 3.308 129.819 4.162 129.819 5.114C129.819 6.066 129.6 6.92467 129.161 7.69C128.723 8.446 128.121 9.03867 127.355 9.468C126.599 9.888 125.764 10.098 124.849 10.098ZM124.849 8.712C125.493 8.712 126.067 8.56733 126.571 8.278C127.075 7.97933 127.467 7.55933 127.747 7.018C128.037 6.46733 128.181 5.83267 128.181 5.114C128.181 4.39533 128.037 3.76533 127.747 3.224C127.467 2.68267 127.075 2.26733 126.571 1.978C126.067 1.68867 125.493 1.544 124.849 1.544C124.205 1.544 123.631 1.68867 123.127 1.978C122.623 2.26733 122.227 2.68267 121.937 3.224C121.657 3.76533 121.517 4.39533 121.517 5.114C121.517 5.83267 121.657 6.46733 121.937 7.018C122.227 7.55933 122.623 7.97933 123.127 8.278C123.631 8.56733 124.205 8.712 124.849 8.712ZM135.786 8.712H139.076V10H134.19V0.269999H135.786V8.712ZM144.793 0.269999V6.472C144.793 7.20933 144.984 7.76467 145.367 8.138C145.759 8.51133 146.3 8.698 146.991 8.698C147.691 8.698 148.232 8.51133 148.615 8.138C149.007 7.76467 149.203 7.20933 149.203 6.472V0.269999H150.799V6.444C150.799 7.23733 150.626 7.90933 150.281 8.46C149.935 9.01067 149.473 9.42133 148.895 9.692C148.316 9.96267 147.677 10.098 146.977 10.098C146.277 10.098 145.637 9.96267 145.059 9.692C144.489 9.42133 144.037 9.01067 143.701 8.46C143.365 7.90933 143.197 7.23733 143.197 6.444V0.269999H144.793ZM161.963 0.269999V1.572H159.373V10H157.777V1.572H155.173V0.269999H161.963ZM167.975 0.269999V10H166.379V0.269999H167.975ZM177.308 10.098C176.403 10.098 175.568 9.888 174.802 9.468C174.046 9.03867 173.444 8.446 172.996 7.69C172.558 6.92467 172.338 6.066 172.338 5.114C172.338 4.162 172.558 3.308 172.996 2.552C173.444 1.796 174.046 1.208 174.802 0.787999C175.568 0.358666 176.403 0.143999 177.308 0.143999C178.223 0.143999 179.058 0.358666 179.814 0.787999C180.58 1.208 181.182 1.796 181.62 2.552C182.059 3.308 182.278 4.162 182.278 5.114C182.278 6.066 182.059 6.92467 181.62 7.69C181.182 8.446 180.58 9.03867 179.814 9.468C179.058 9.888 178.223 10.098 177.308 10.098ZM177.308 8.712C177.952 8.712 178.526 8.56733 179.03 8.278C179.534 7.97933 179.926 7.55933 180.206 7.018C180.496 6.46733 180.64 5.83267 180.64 5.114C180.64 4.39533 180.496 3.76533 180.206 3.224C179.926 2.68267 179.534 2.26733 179.03 1.978C178.526 1.68867 177.952 1.544 177.308 1.544C176.664 1.544 176.09 1.68867 175.586 1.978C175.082 2.26733 174.686 2.68267 174.396 3.224C174.116 3.76533 173.976 4.39533 173.976 5.114C173.976 5.83267 174.116 6.46733 174.396 7.018C174.686 7.55933 175.082 7.97933 175.586 8.278C176.09 8.56733 176.664 8.712 177.308 8.712ZM194.643 10H193.047L188.245 2.734V10H186.649V0.255999H188.245L193.047 7.508V0.255999H194.643V10Z" fill="#1E84B5"/>
</svg>
