<svg width="35" height="35" viewBox="0 0 35 35" fill="none" xmlns="http://www.w3.org/2000/svg">
<path d="M12.8729 24.7292C9.54238 24.7292 6.71946 23.5723 4.40418 21.2584C2.09029 18.9459 0.93335 16.1237 0.93335 12.7917C0.93335 9.4598 2.09029 6.63689 4.40418 4.323C6.71807 2.00911 9.54099 0.85286 12.8729 0.854249C16.2049 0.855638 19.0271 2.01258 21.3396 4.32508C23.6521 6.63758 24.809 9.4598 24.8104 12.7917C24.8104 14.239 24.5542 15.6397 24.0417 16.9938C23.5292 18.348 22.8556 19.5063 22.0208 20.4688L34.3313 32.7751C34.5257 32.9695 34.6299 33.2091 34.6438 33.4938C34.6563 33.7758 34.5521 34.0279 34.3313 34.2501C34.109 34.4723 33.8632 34.5834 33.5938 34.5834C33.3243 34.5834 33.0785 34.4723 32.8563 34.2501L20.5479 21.9417C19.5063 22.8292 18.3083 23.5161 16.9542 24.0022C15.6 24.4883 14.2389 24.7313 12.8708 24.7313M12.8708 22.648C15.6347 22.648 17.9688 21.6966 19.8729 19.7938C21.7757 17.8911 22.7271 15.557 22.7271 12.7917C22.7271 10.0265 21.7764 7.69314 19.875 5.79175C17.9736 3.89036 15.6403 2.93897 12.875 2.93758C10.1097 2.93758 7.77571 3.88897 5.87293 5.79175C3.97015 7.69453 3.01807 10.0279 3.01668 12.7917C3.01529 15.5556 3.96668 17.889 5.87085 19.7917C7.77502 21.6945 10.1083 22.6459 12.8708 22.6459" fill="#072B73"/>
</svg>
