<svg width="32" height="32" viewBox="0 0 32 32" fill="none" xmlns="http://www.w3.org/2000/svg">
<path d="M13.6573 21.752L8 16.0934L9.88533 14.208L13.6573 17.9787L21.1987 10.436L23.0853 12.3227L13.6573 21.752Z" fill="#00A218"/>
<path fill-rule="evenodd" clip-rule="evenodd" d="M1.33398 16C1.33398 7.90004 7.90065 1.33337 16.0007 1.33337C24.1007 1.33337 30.6673 7.90004 30.6673 16C30.6673 24.1 24.1007 30.6667 16.0007 30.6667C7.90065 30.6667 1.33398 24.1 1.33398 16ZM16.0007 28C14.4248 28 12.8644 27.6897 11.4085 27.0866C9.95254 26.4835 8.62967 25.5996 7.51537 24.4853C6.40107 23.371 5.51715 22.0481 4.9141 20.5922C4.31104 19.1363 4.00065 17.5759 4.00065 16C4.00065 14.4242 4.31104 12.8637 4.9141 11.4078C5.51715 9.95193 6.40107 8.62906 7.51537 7.51476C8.62967 6.40046 9.95254 5.51654 11.4085 4.91349C12.8644 4.31043 14.4248 4.00004 16.0007 4.00004C19.1832 4.00004 22.2355 5.26432 24.4859 7.51476C26.7364 9.7652 28.0007 12.8174 28.0007 16C28.0007 19.1826 26.7364 22.2349 24.4859 24.4853C22.2355 26.7358 19.1832 28 16.0007 28Z" fill="#00A218"/>
</svg>
