<svg width="40" height="48" viewBox="0 0 40 48" fill="none" xmlns="http://www.w3.org/2000/svg">
<path d="M2 21.75H38M20 44.25V1.5M2 22.317C2 39.6127 17.5655 45.6877 19.7458 46.455C19.9153 46.515 20.0848 46.515 20.2543 46.455C22.439 45.7125 38 39.7905 38 22.3192V6.684C38.0005 6.48292 37.9336 6.28747 37.81 6.12883C37.6865 5.9702 37.5133 5.85751 37.3183 5.80875L20.2183 1.527C20.075 1.49118 19.925 1.49118 19.7818 1.527L2.68175 5.80875C2.48667 5.85751 2.31354 5.9702 2.18998 6.12883C2.06641 6.28747 1.99953 6.48292 2 6.684V22.317Z" stroke="#072B73" stroke-width="2.5" stroke-miterlimit="10" stroke-linecap="round" stroke-linejoin="round"/>
</svg>
