<svg width="52" height="52" viewBox="0 0 52 52" fill="none" xmlns="http://www.w3.org/2000/svg">
<path d="M25.9999 45.4176C21.6464 44.1248 18.0302 41.488 15.1514 37.5071C12.2726 33.5262 10.8333 29.0405 10.8333 24.0499V12.3326L25.9999 6.66675L41.1666 12.3326V24.0499C41.1666 29.039 39.7272 33.524 36.8484 37.5049C33.9696 41.4858 30.3535 44.1219 25.9999 45.4176ZM25.9999 43.1187C29.5027 42.0354 32.4277 39.8962 34.7749 36.7011C37.1221 33.506 38.4944 29.9389 38.8916 25.9999H25.9999V8.97858L12.9999 13.8124V24.9837C12.9999 25.264 13.036 25.6027 13.1083 25.9999H25.9999V43.1187Z" fill="white"/>
</svg>
