<svg width="535" height="500" viewBox="0 0 535 500" fill="none" xmlns="http://www.w3.org/2000/svg">
<g filter="url(#filter0_d_105_211)">
<path d="M41 51C41 45.4772 45.4772 41 51 41H484C489.523 41 494 45.4772 494 51V449C494 454.523 489.523 459 484 459H51C45.4772 459 41 454.523 41 449V51Z" fill="white"/>
<path d="M51 41.25H484C489.385 41.25 493.75 45.6152 493.75 51V449C493.75 454.385 489.385 458.75 484 458.75H51C45.6152 458.75 41.25 454.385 41.25 449V51C41.25 45.6152 45.6152 41.25 51 41.25Z" stroke="#CCCCCC" stroke-opacity="0.8" stroke-width="0.5"/>
<path d="M74.084 432.264C73.1934 432.264 72.373 432.105 71.623 431.789C70.873 431.461 70.2168 431.016 69.6543 430.453C69.0918 429.891 68.6523 429.24 68.3359 428.502C68.0312 427.752 67.8789 426.955 67.8789 426.111C67.8789 425.268 68.0312 424.477 68.3359 423.738C68.6523 422.988 69.0918 422.332 69.6543 421.77C70.2168 421.207 70.873 420.768 71.623 420.451C72.373 420.123 73.1934 419.959 74.084 419.959C74.9395 419.959 75.6367 420.076 76.1758 420.311C76.7266 420.545 77.207 420.85 77.6172 421.225V422.965C77.3594 422.777 77.0664 422.572 76.7383 422.35C76.4219 422.127 76.0469 421.934 75.6133 421.77C75.1914 421.594 74.6816 421.506 74.084 421.506C73.2051 421.506 72.4199 421.705 71.7285 422.104C71.0371 422.502 70.4922 423.053 70.0938 423.756C69.6953 424.447 69.4961 425.232 69.4961 426.111C69.4961 426.99 69.6953 427.775 70.0938 428.467C70.4922 429.158 71.0371 429.709 71.7285 430.119C72.4199 430.518 73.2051 430.717 74.084 430.717C74.9863 430.717 75.7539 430.57 76.3867 430.277C77.0312 429.973 77.5586 429.662 77.9688 429.346V430.928C77.5586 431.291 77.0195 431.607 76.3516 431.877C75.6953 432.135 74.9395 432.264 74.084 432.264ZM84.3145 432.264C83.6465 432.264 83.0312 432.146 82.4688 431.912C81.918 431.666 81.4316 431.332 81.0098 430.91C80.5996 430.477 80.2832 429.984 80.0605 429.434C79.8379 428.871 79.7266 428.279 79.7266 427.658C79.7266 427.037 79.8379 426.451 80.0605 425.9C80.2832 425.338 80.5996 424.846 81.0098 424.424C81.4316 423.99 81.918 423.65 82.4688 423.404C83.0312 423.158 83.6465 423.035 84.3145 423.035C84.9824 423.035 85.5918 423.158 86.1426 423.404C86.7051 423.65 87.1914 423.99 87.6016 424.424C88.0234 424.846 88.3457 425.338 88.5684 425.9C88.791 426.451 88.9023 427.037 88.9023 427.658C88.9023 428.279 88.791 428.871 88.5684 429.434C88.3457 429.984 88.0234 430.477 87.6016 430.91C87.1914 431.332 86.7051 431.666 86.1426 431.912C85.5918 432.146 84.9824 432.264 84.3145 432.264ZM84.3145 430.857C84.9473 430.857 85.4922 430.711 85.9492 430.418C86.418 430.113 86.7754 429.721 87.0215 429.24C87.2793 428.748 87.4082 428.221 87.4082 427.658C87.4082 427.084 87.2793 426.557 87.0215 426.076C86.7754 425.584 86.418 425.191 85.9492 424.898C85.4922 424.594 84.9473 424.441 84.3145 424.441C83.6934 424.441 83.1484 424.594 82.6797 424.898C82.2109 425.191 81.8477 425.584 81.5898 426.076C81.3438 426.557 81.2207 427.084 81.2207 427.658C81.2207 428.221 81.3438 428.748 81.5898 429.24C81.8477 429.721 82.2109 430.113 82.6797 430.418C83.1484 430.711 83.6934 430.857 84.3145 430.857ZM90.8359 428.344V426.762H96.127V428.344H90.8359ZM99.1152 432V420.223H106.814V421.717H100.697V432H99.1152ZM100.346 427.148V425.654H105.76V427.148H100.346ZM113.248 432.264C112.58 432.264 111.965 432.146 111.402 431.912C110.852 431.666 110.365 431.332 109.943 430.91C109.533 430.477 109.217 429.984 108.994 429.434C108.771 428.871 108.66 428.279 108.66 427.658C108.66 427.037 108.771 426.451 108.994 425.9C109.217 425.338 109.533 424.846 109.943 424.424C110.365 423.99 110.852 423.65 111.402 423.404C111.965 423.158 112.58 423.035 113.248 423.035C113.916 423.035 114.525 423.158 115.076 423.404C115.639 423.65 116.125 423.99 116.535 424.424C116.957 424.846 117.279 425.338 117.502 425.9C117.725 426.451 117.836 427.037 117.836 427.658C117.836 428.279 117.725 428.871 117.502 429.434C117.279 429.984 116.957 430.477 116.535 430.91C116.125 431.332 115.639 431.666 115.076 431.912C114.525 432.146 113.916 432.264 113.248 432.264ZM113.248 430.857C113.881 430.857 114.426 430.711 114.883 430.418C115.352 430.113 115.709 429.721 115.955 429.24C116.213 428.748 116.342 428.221 116.342 427.658C116.342 427.084 116.213 426.557 115.955 426.076C115.709 425.584 115.352 425.191 114.883 424.898C114.426 424.594 113.881 424.441 113.248 424.441C112.627 424.441 112.082 424.594 111.613 424.898C111.145 425.191 110.781 425.584 110.523 426.076C110.277 426.557 110.154 427.084 110.154 427.658C110.154 428.221 110.277 428.748 110.523 429.24C110.781 429.721 111.145 430.113 111.613 430.418C112.082 430.711 112.627 430.857 113.248 430.857ZM123.672 432.176C122.969 432.176 122.336 432.023 121.773 431.719C121.211 431.414 120.766 430.98 120.438 430.418C120.109 429.855 119.945 429.188 119.945 428.414V423.211H121.439V428.414C121.439 429.176 121.662 429.762 122.107 430.172C122.564 430.57 123.086 430.77 123.672 430.77C124.258 430.77 124.773 430.57 125.219 430.172C125.676 429.762 125.904 429.176 125.904 428.414V423.211H127.398V428.414C127.398 429.188 127.234 429.855 126.906 430.418C126.578 430.98 126.133 431.414 125.57 431.719C125.008 432.023 124.375 432.176 123.672 432.176ZM136.24 432L136.223 426.779C136.223 426.018 136.053 425.438 135.713 425.039C135.385 424.641 134.875 424.441 134.184 424.441C133.715 424.441 133.246 424.617 132.777 424.969C132.32 425.309 131.916 425.707 131.564 426.164V424.6C131.752 424.365 131.992 424.131 132.285 423.896C132.578 423.65 132.906 423.445 133.27 423.281C133.645 423.117 134.031 423.035 134.43 423.035C135.027 423.035 135.572 423.17 136.064 423.439C136.557 423.697 136.949 424.096 137.242 424.635C137.535 425.162 137.682 425.83 137.682 426.639V432H136.24ZM130.123 432V423.211H131.564V432H130.123ZM143.887 432.264C143.137 432.264 142.451 432.076 141.83 431.701C141.209 431.314 140.711 430.781 140.336 430.102C139.973 429.422 139.791 428.637 139.791 427.746C139.791 426.773 139.973 425.936 140.336 425.232C140.711 424.529 141.221 423.99 141.865 423.615C142.51 423.229 143.23 423.035 144.027 423.035C144.531 423.035 145.041 423.158 145.557 423.404C146.084 423.639 146.535 423.967 146.91 424.389V419.344H148.352V432H146.91V430.506C146.605 430.975 146.189 431.385 145.662 431.736C145.146 432.088 144.555 432.264 143.887 432.264ZM144.115 430.857C144.654 430.857 145.135 430.717 145.557 430.436C145.979 430.154 146.312 429.768 146.559 429.275C146.805 428.771 146.922 428.209 146.91 427.588L146.893 425.9C146.529 425.443 146.137 425.092 145.715 424.846C145.305 424.6 144.83 424.477 144.291 424.477C143.658 424.477 143.119 424.635 142.674 424.951C142.229 425.256 141.883 425.654 141.637 426.146C141.402 426.639 141.285 427.172 141.285 427.746C141.285 428.309 141.402 428.83 141.637 429.311C141.871 429.779 142.199 430.154 142.621 430.436C143.055 430.717 143.553 430.857 144.115 430.857ZM155.312 432.264C154.645 432.264 154.029 432.146 153.467 431.912C152.916 431.666 152.43 431.332 152.008 430.91C151.598 430.477 151.281 429.984 151.059 429.434C150.836 428.871 150.725 428.279 150.725 427.658C150.725 426.826 150.906 426.059 151.27 425.355C151.633 424.652 152.131 424.09 152.764 423.668C153.408 423.246 154.141 423.035 154.961 423.035C155.863 423.035 156.613 423.223 157.211 423.598C157.809 423.973 158.254 424.482 158.547 425.127C158.852 425.771 159.004 426.498 159.004 427.307V428.168H152.078V426.938H157.58C157.521 426.363 157.357 425.895 157.088 425.531C156.83 425.168 156.514 424.898 156.139 424.723C155.764 424.535 155.371 424.441 154.961 424.441C154.398 424.441 153.912 424.594 153.502 424.898C153.092 425.191 152.775 425.584 152.553 426.076C152.33 426.557 152.219 427.084 152.219 427.658C152.219 428.221 152.342 428.748 152.588 429.24C152.846 429.721 153.209 430.113 153.678 430.418C154.146 430.711 154.691 430.857 155.312 430.857C155.945 430.857 156.531 430.699 157.07 430.383C157.621 430.055 158.084 429.697 158.459 429.311V430.875C158.295 431.074 158.049 431.285 157.721 431.508C157.404 431.719 157.035 431.895 156.613 432.035C156.203 432.188 155.77 432.264 155.312 432.264ZM161.377 432V423.211H162.818V432H161.377ZM162.818 426.691V424.969C163.158 424.383 163.568 423.914 164.049 423.562C164.529 423.211 165.021 423.035 165.525 423.035C165.865 423.035 166.17 423.094 166.439 423.211V424.881C166.264 424.775 166.082 424.693 165.895 424.635C165.707 424.576 165.514 424.547 165.314 424.547C164.717 424.547 164.23 424.758 163.855 425.18C163.492 425.602 163.146 426.105 162.818 426.691ZM177.039 432.264C176.289 432.264 175.604 432.076 174.982 431.701C174.361 431.314 173.863 430.781 173.488 430.102C173.125 429.422 172.943 428.637 172.943 427.746C172.943 426.773 173.125 425.936 173.488 425.232C173.863 424.529 174.373 423.99 175.018 423.615C175.662 423.229 176.383 423.035 177.18 423.035C177.684 423.035 178.193 423.158 178.709 423.404C179.236 423.639 179.688 423.967 180.062 424.389V423.211H181.504V432H180.062V430.506C179.758 430.975 179.342 431.385 178.814 431.736C178.299 432.088 177.707 432.264 177.039 432.264ZM177.268 430.857C177.807 430.857 178.287 430.717 178.709 430.436C179.131 430.154 179.465 429.768 179.711 429.275C179.957 428.771 180.074 428.209 180.062 427.588L180.045 425.9C179.682 425.443 179.289 425.086 178.867 424.828C178.457 424.57 177.982 424.441 177.443 424.441C176.811 424.441 176.271 424.6 175.826 424.916C175.381 425.232 175.035 425.643 174.789 426.146C174.555 426.639 174.438 427.172 174.438 427.746C174.438 428.309 174.555 428.83 174.789 429.311C175.023 429.779 175.352 430.154 175.773 430.436C176.207 430.717 176.705 430.857 177.268 430.857ZM190.609 432L190.592 426.779C190.592 426.018 190.422 425.438 190.082 425.039C189.754 424.641 189.244 424.441 188.553 424.441C188.084 424.441 187.615 424.617 187.146 424.969C186.689 425.309 186.285 425.707 185.934 426.164V424.6C186.121 424.365 186.361 424.131 186.654 423.896C186.947 423.65 187.275 423.445 187.639 423.281C188.014 423.117 188.4 423.035 188.799 423.035C189.396 423.035 189.941 423.17 190.434 423.439C190.926 423.697 191.318 424.096 191.611 424.635C191.904 425.162 192.051 425.83 192.051 426.639V432H190.609ZM184.492 432V423.211H185.934V432H184.492ZM198.256 432.264C197.506 432.264 196.82 432.076 196.199 431.701C195.578 431.314 195.08 430.781 194.705 430.102C194.342 429.422 194.16 428.637 194.16 427.746C194.16 426.773 194.342 425.936 194.705 425.232C195.08 424.529 195.59 423.99 196.234 423.615C196.879 423.229 197.6 423.035 198.396 423.035C198.9 423.035 199.41 423.158 199.926 423.404C200.453 423.639 200.904 423.967 201.279 424.389V419.344H202.721V432H201.279V430.506C200.975 430.975 200.559 431.385 200.031 431.736C199.516 432.088 198.924 432.264 198.256 432.264ZM198.484 430.857C199.023 430.857 199.504 430.717 199.926 430.436C200.348 430.154 200.682 429.768 200.928 429.275C201.174 428.771 201.291 428.209 201.279 427.588L201.262 425.9C200.898 425.443 200.506 425.092 200.084 424.846C199.674 424.6 199.199 424.477 198.66 424.477C198.027 424.477 197.488 424.635 197.043 424.951C196.598 425.256 196.252 425.654 196.006 426.146C195.771 426.639 195.654 427.172 195.654 427.746C195.654 428.309 195.771 428.83 196.006 429.311C196.24 429.779 196.568 430.154 196.99 430.436C197.424 430.717 197.922 430.857 198.484 430.857ZM216.572 432.264C215.682 432.264 214.861 432.105 214.111 431.789C213.361 431.461 212.705 431.016 212.143 430.453C211.58 429.891 211.141 429.24 210.824 428.502C210.52 427.752 210.367 426.955 210.367 426.111C210.367 425.268 210.52 424.477 210.824 423.738C211.141 422.988 211.58 422.332 212.143 421.77C212.705 421.207 213.361 420.768 214.111 420.451C214.861 420.123 215.682 419.959 216.572 419.959C217.428 419.959 218.125 420.076 218.664 420.311C219.215 420.545 219.695 420.85 220.105 421.225V422.965C219.848 422.777 219.555 422.572 219.227 422.35C218.91 422.127 218.535 421.934 218.102 421.77C217.68 421.594 217.17 421.506 216.572 421.506C215.693 421.506 214.908 421.705 214.217 422.104C213.525 422.502 212.98 423.053 212.582 423.756C212.184 424.447 211.984 425.232 211.984 426.111C211.984 426.99 212.184 427.775 212.582 428.467C212.98 429.158 213.525 429.709 214.217 430.119C214.908 430.518 215.693 430.717 216.572 430.717C217.475 430.717 218.242 430.57 218.875 430.277C219.52 429.973 220.047 429.662 220.457 429.346V430.928C220.047 431.291 219.508 431.607 218.84 431.877C218.184 432.135 217.428 432.264 216.572 432.264ZM228.947 432L228.93 426.779C228.93 426.018 228.76 425.438 228.42 425.039C228.092 424.641 227.582 424.441 226.891 424.441C226.422 424.441 225.953 424.617 225.484 424.969C225.027 425.309 224.623 425.707 224.271 426.164V424.6C224.459 424.365 224.699 424.131 224.992 423.896C225.285 423.65 225.613 423.445 225.977 423.281C226.352 423.117 226.738 423.035 227.137 423.035C227.734 423.035 228.279 423.17 228.771 423.439C229.264 423.697 229.656 424.096 229.949 424.635C230.242 425.162 230.389 425.83 230.389 426.639V432H228.947ZM222.83 432V419.344H224.271V432H222.83ZM234.52 421.383C234.18 421.383 233.893 421.26 233.658 421.014C233.436 420.768 233.324 420.492 233.324 420.188C233.324 419.871 233.436 419.596 233.658 419.361C233.893 419.115 234.18 418.992 234.52 418.992C234.742 418.992 234.941 419.051 235.117 419.168C235.305 419.273 235.451 419.42 235.557 419.607C235.662 419.783 235.715 419.977 235.715 420.188C235.715 420.387 235.662 420.58 235.557 420.768C235.451 420.955 235.305 421.107 235.117 421.225C234.941 421.33 234.742 421.383 234.52 421.383ZM233.975 432V423.211H235.416V432H233.975ZM232.586 424.564V423.211H235.416V424.564H232.586ZM242.5 432.264C241.832 432.264 241.217 432.146 240.654 431.912C240.104 431.666 239.617 431.332 239.195 430.91C238.785 430.477 238.469 429.984 238.246 429.434C238.023 428.871 237.912 428.279 237.912 427.658C237.912 426.826 238.094 426.059 238.457 425.355C238.82 424.652 239.318 424.09 239.951 423.668C240.596 423.246 241.328 423.035 242.148 423.035C243.051 423.035 243.801 423.223 244.398 423.598C244.996 423.973 245.441 424.482 245.734 425.127C246.039 425.771 246.191 426.498 246.191 427.307V428.168H239.266V426.938H244.768C244.709 426.363 244.545 425.895 244.275 425.531C244.018 425.168 243.701 424.898 243.326 424.723C242.951 424.535 242.559 424.441 242.148 424.441C241.586 424.441 241.1 424.594 240.689 424.898C240.279 425.191 239.963 425.584 239.74 426.076C239.518 426.557 239.406 427.084 239.406 427.658C239.406 428.221 239.529 428.748 239.775 429.24C240.033 429.721 240.396 430.113 240.865 430.418C241.334 430.711 241.879 430.857 242.5 430.857C243.133 430.857 243.719 430.699 244.258 430.383C244.809 430.055 245.271 429.697 245.646 429.311V430.875C245.482 431.074 245.236 431.285 244.908 431.508C244.592 431.719 244.223 431.895 243.801 432.035C243.391 432.188 242.957 432.264 242.5 432.264ZM249.109 432V422.086C249.109 421.395 249.244 420.832 249.514 420.398C249.783 419.953 250.129 419.625 250.551 419.414C250.973 419.191 251.4 419.08 251.834 419.08C252.139 419.08 252.414 419.121 252.66 419.203C252.906 419.285 253.117 419.402 253.293 419.555V420.82C253.117 420.703 252.906 420.609 252.66 420.539C252.414 420.469 252.168 420.439 251.922 420.451C251.488 420.463 251.148 420.604 250.902 420.873C250.668 421.131 250.551 421.588 250.551 422.244V432H249.109ZM247.721 424.564V423.211H253.117V424.564H247.721ZM269.975 432L262.328 423.58V432H260.746V420.223H261.344L268.99 428.748V420.223H270.572V432H269.975ZM277.973 432.264C277.305 432.264 276.689 432.146 276.127 431.912C275.576 431.666 275.09 431.332 274.668 430.91C274.258 430.477 273.941 429.984 273.719 429.434C273.496 428.871 273.385 428.279 273.385 427.658C273.385 426.826 273.566 426.059 273.93 425.355C274.293 424.652 274.791 424.09 275.424 423.668C276.068 423.246 276.801 423.035 277.621 423.035C278.523 423.035 279.273 423.223 279.871 423.598C280.469 423.973 280.914 424.482 281.207 425.127C281.512 425.771 281.664 426.498 281.664 427.307V428.168H274.738V426.938H280.24C280.182 426.363 280.018 425.895 279.748 425.531C279.49 425.168 279.174 424.898 278.799 424.723C278.424 424.535 278.031 424.441 277.621 424.441C277.059 424.441 276.572 424.594 276.162 424.898C275.752 425.191 275.436 425.584 275.213 426.076C274.99 426.557 274.879 427.084 274.879 427.658C274.879 428.221 275.002 428.748 275.248 429.24C275.506 429.721 275.869 430.113 276.338 430.418C276.807 430.711 277.352 430.857 277.973 430.857C278.605 430.857 279.191 430.699 279.73 430.383C280.281 430.055 280.744 429.697 281.119 429.311V430.875C280.955 431.074 280.709 431.285 280.381 431.508C280.064 431.719 279.695 431.895 279.273 432.035C278.863 432.188 278.43 432.264 277.973 432.264ZM287.447 432.264C286.955 432.264 286.527 432.164 286.164 431.965C285.801 431.754 285.52 431.461 285.32 431.086C285.121 430.711 285.021 430.277 285.021 429.785V424.564H283.334V424.143C283.908 423.885 284.389 423.463 284.775 422.877C285.162 422.279 285.502 421.547 285.795 420.68H286.463V423.211H289.293V424.564H286.463V429.715C286.463 430.078 286.58 430.365 286.814 430.576C287.061 430.787 287.377 430.893 287.764 430.893C288.115 430.893 288.432 430.852 288.713 430.77C289.006 430.676 289.24 430.576 289.416 430.471V431.736C289.182 431.924 288.906 432.059 288.59 432.141C288.273 432.223 287.893 432.264 287.447 432.264ZM293.811 432L290.734 423.211H292.457L294.408 429.381L296.711 423.211H297.52L299.822 429.381L301.773 423.211H303.496L300.42 432H299.523L297.115 425.795L294.707 432H293.811ZM309.227 432.264C308.559 432.264 307.943 432.146 307.381 431.912C306.83 431.666 306.344 431.332 305.922 430.91C305.512 430.477 305.195 429.984 304.973 429.434C304.75 428.871 304.639 428.279 304.639 427.658C304.639 427.037 304.75 426.451 304.973 425.9C305.195 425.338 305.512 424.846 305.922 424.424C306.344 423.99 306.83 423.65 307.381 423.404C307.943 423.158 308.559 423.035 309.227 423.035C309.895 423.035 310.504 423.158 311.055 423.404C311.617 423.65 312.104 423.99 312.514 424.424C312.936 424.846 313.258 425.338 313.48 425.9C313.703 426.451 313.814 427.037 313.814 427.658C313.814 428.279 313.703 428.871 313.48 429.434C313.258 429.984 312.936 430.477 312.514 430.91C312.104 431.332 311.617 431.666 311.055 431.912C310.504 432.146 309.895 432.264 309.227 432.264ZM309.227 430.857C309.859 430.857 310.404 430.711 310.861 430.418C311.33 430.113 311.688 429.721 311.934 429.24C312.191 428.748 312.32 428.221 312.32 427.658C312.32 427.084 312.191 426.557 311.934 426.076C311.688 425.584 311.33 425.191 310.861 424.898C310.404 424.594 309.859 424.441 309.227 424.441C308.605 424.441 308.061 424.594 307.592 424.898C307.123 425.191 306.76 425.584 306.502 426.076C306.256 426.557 306.133 427.084 306.133 427.658C306.133 428.221 306.256 428.748 306.502 429.24C306.76 429.721 307.123 430.113 307.592 430.418C308.061 430.711 308.605 430.857 309.227 430.857ZM316.188 432V423.211H317.629V432H316.188ZM317.629 426.691V424.969C317.969 424.383 318.379 423.914 318.859 423.562C319.34 423.211 319.832 423.035 320.336 423.035C320.676 423.035 320.98 423.094 321.25 423.211V424.881C321.074 424.775 320.893 424.693 320.705 424.635C320.518 424.576 320.324 424.547 320.125 424.547C319.527 424.547 319.041 424.758 318.666 425.18C318.303 425.602 317.957 426.105 317.629 426.691ZM324.115 429.557V427.904L328.914 423.211H330.865L324.115 429.557ZM323.096 432V419.344H324.537V432H323.096ZM329.266 432L325.258 427.377L326.207 426.357L331.094 432H329.266ZM334.082 421.383C333.742 421.383 333.455 421.26 333.221 421.014C332.998 420.768 332.887 420.492 332.887 420.188C332.887 419.871 332.998 419.596 333.221 419.361C333.455 419.115 333.742 418.992 334.082 418.992C334.305 418.992 334.504 419.051 334.68 419.168C334.867 419.273 335.014 419.42 335.119 419.607C335.225 419.783 335.277 419.977 335.277 420.188C335.277 420.387 335.225 420.58 335.119 420.768C335.014 420.955 334.867 421.107 334.68 421.225C334.504 421.33 334.305 421.383 334.082 421.383ZM333.537 432V423.211H334.979V432H333.537ZM332.148 424.564V423.211H334.979V424.564H332.148ZM344.207 432L344.189 426.779C344.189 426.018 344.02 425.438 343.68 425.039C343.352 424.641 342.842 424.441 342.15 424.441C341.682 424.441 341.213 424.617 340.744 424.969C340.287 425.309 339.883 425.707 339.531 426.164V424.6C339.719 424.365 339.959 424.131 340.252 423.896C340.545 423.65 340.873 423.445 341.236 423.281C341.611 423.117 341.998 423.035 342.396 423.035C342.994 423.035 343.539 423.17 344.031 423.439C344.523 423.697 344.916 424.096 345.209 424.635C345.502 425.162 345.648 425.83 345.648 426.639V432H344.207ZM338.09 432V423.211H339.531V432H338.09ZM351.695 436.482C351.156 436.482 350.693 436.418 350.307 436.289C349.932 436.172 349.609 436.02 349.34 435.832C349.07 435.656 348.824 435.486 348.602 435.322V433.775C348.777 433.904 349.006 434.068 349.287 434.268C349.58 434.479 349.926 434.666 350.324 434.83C350.734 434.994 351.191 435.076 351.695 435.076C352.27 435.076 352.797 434.971 353.277 434.76C353.758 434.549 354.145 434.238 354.438 433.828C354.73 433.418 354.877 432.926 354.877 432.352V430.506C354.572 430.975 354.156 431.385 353.629 431.736C353.113 432.088 352.521 432.264 351.854 432.264C351.104 432.264 350.418 432.076 349.797 431.701C349.176 431.314 348.678 430.781 348.303 430.102C347.939 429.422 347.758 428.637 347.758 427.746C347.758 426.773 347.939 425.936 348.303 425.232C348.678 424.529 349.188 423.99 349.832 423.615C350.477 423.229 351.197 423.035 351.994 423.035C352.498 423.035 353.008 423.158 353.523 423.404C354.051 423.639 354.502 423.967 354.877 424.389V423.211H356.318V431.824C356.318 432.867 356.107 433.734 355.686 434.426C355.264 435.117 354.701 435.633 353.998 435.973C353.295 436.312 352.527 436.482 351.695 436.482ZM352.082 430.84C352.621 430.84 353.096 430.699 353.506 430.418C353.928 430.137 354.256 429.75 354.49 429.258C354.736 428.766 354.859 428.209 354.859 427.588V425.9C354.496 425.443 354.104 425.092 353.682 424.846C353.271 424.588 352.797 424.459 352.258 424.459C351.625 424.459 351.086 424.617 350.641 424.934C350.195 425.238 349.85 425.643 349.604 426.146C349.369 426.639 349.252 427.172 349.252 427.746C349.252 428.309 349.369 428.824 349.604 429.293C349.838 429.762 350.166 430.137 350.588 430.418C351.021 430.699 351.52 430.84 352.082 430.84ZM370.17 432.264C369.279 432.264 368.459 432.105 367.709 431.789C366.959 431.461 366.303 431.016 365.74 430.453C365.178 429.891 364.738 429.24 364.422 428.502C364.117 427.752 363.965 426.955 363.965 426.111C363.965 425.268 364.117 424.477 364.422 423.738C364.738 422.988 365.178 422.332 365.74 421.77C366.303 421.207 366.959 420.768 367.709 420.451C368.459 420.123 369.279 419.959 370.17 419.959C371.061 419.959 371.881 420.123 372.631 420.451C373.381 420.768 374.037 421.207 374.6 421.77C375.162 422.332 375.596 422.988 375.9 423.738C376.217 424.477 376.375 425.268 376.375 426.111C376.375 426.955 376.217 427.752 375.9 428.502C375.596 429.24 375.162 429.891 374.6 430.453C374.037 431.016 373.381 431.461 372.631 431.789C371.881 432.105 371.061 432.264 370.17 432.264ZM370.17 430.717C371.049 430.717 371.834 430.518 372.525 430.119C373.217 429.709 373.762 429.158 374.16 428.467C374.559 427.775 374.758 426.99 374.758 426.111C374.758 425.232 374.559 424.447 374.16 423.756C373.762 423.053 373.217 422.502 372.525 422.104C371.834 421.705 371.049 421.506 370.17 421.506C369.291 421.506 368.506 421.705 367.814 422.104C367.123 422.502 366.578 423.053 366.18 423.756C365.781 424.447 365.582 425.232 365.582 426.111C365.582 426.99 365.781 427.775 366.18 428.467C366.578 429.158 367.123 429.709 367.814 430.119C368.506 430.518 369.291 430.717 370.17 430.717ZM379.293 432V422.086C379.293 421.395 379.428 420.832 379.697 420.398C379.967 419.953 380.312 419.625 380.734 419.414C381.156 419.191 381.584 419.08 382.018 419.08C382.322 419.08 382.598 419.121 382.844 419.203C383.09 419.285 383.301 419.402 383.477 419.555V420.82C383.301 420.703 383.09 420.609 382.844 420.539C382.598 420.469 382.352 420.439 382.105 420.451C381.672 420.463 381.332 420.604 381.086 420.873C380.852 421.131 380.734 421.588 380.734 422.244V432H379.293ZM377.904 424.564V423.211H383.301V424.564H377.904ZM385.762 432V422.086C385.762 421.395 385.896 420.832 386.166 420.398C386.436 419.953 386.781 419.625 387.203 419.414C387.625 419.191 388.053 419.08 388.486 419.08C388.791 419.08 389.066 419.121 389.312 419.203C389.559 419.285 389.77 419.402 389.945 419.555V420.82C389.77 420.703 389.559 420.609 389.312 420.539C389.066 420.469 388.82 420.439 388.574 420.451C388.141 420.463 387.801 420.604 387.555 420.873C387.32 421.131 387.203 421.588 387.203 422.244V432H385.762ZM384.373 424.564V423.211H389.77V424.564H384.373ZM393.092 421.383C392.752 421.383 392.465 421.26 392.23 421.014C392.008 420.768 391.896 420.492 391.896 420.188C391.896 419.871 392.008 419.596 392.23 419.361C392.465 419.115 392.752 418.992 393.092 418.992C393.314 418.992 393.514 419.051 393.689 419.168C393.877 419.273 394.023 419.42 394.129 419.607C394.234 419.783 394.287 419.977 394.287 420.188C394.287 420.387 394.234 420.58 394.129 420.768C394.023 420.955 393.877 421.107 393.689 421.225C393.514 421.33 393.314 421.383 393.092 421.383ZM392.547 432V423.211H393.988V432H392.547ZM391.158 424.564V423.211H393.988V424.564H391.158ZM401.072 432.264C400.404 432.264 399.789 432.146 399.227 431.912C398.676 431.666 398.189 431.332 397.768 430.91C397.357 430.477 397.041 429.984 396.818 429.434C396.596 428.871 396.484 428.279 396.484 427.658C396.484 427.037 396.596 426.451 396.818 425.9C397.041 425.338 397.357 424.846 397.768 424.424C398.189 423.99 398.676 423.65 399.227 423.404C399.789 423.158 400.404 423.035 401.072 423.035C401.717 423.035 402.273 423.141 402.742 423.352C403.211 423.551 403.533 423.732 403.709 423.896V425.355C403.381 425.109 403.006 424.898 402.584 424.723C402.162 424.535 401.658 424.441 401.072 424.441C400.451 424.441 399.906 424.594 399.438 424.898C398.969 425.191 398.605 425.584 398.348 426.076C398.102 426.557 397.979 427.084 397.979 427.658C397.979 428.221 398.102 428.748 398.348 429.24C398.605 429.721 398.969 430.113 399.438 430.418C399.906 430.711 400.451 430.857 401.072 430.857C401.658 430.857 402.162 430.77 402.584 430.594C403.006 430.406 403.381 430.189 403.709 429.943V431.402C403.533 431.578 403.211 431.766 402.742 431.965C402.273 432.164 401.717 432.264 401.072 432.264ZM410.055 432.264C409.387 432.264 408.771 432.146 408.209 431.912C407.658 431.666 407.172 431.332 406.75 430.91C406.34 430.477 406.023 429.984 405.801 429.434C405.578 428.871 405.467 428.279 405.467 427.658C405.467 426.826 405.648 426.059 406.012 425.355C406.375 424.652 406.873 424.09 407.506 423.668C408.15 423.246 408.883 423.035 409.703 423.035C410.605 423.035 411.355 423.223 411.953 423.598C412.551 423.973 412.996 424.482 413.289 425.127C413.594 425.771 413.746 426.498 413.746 427.307V428.168H406.82V426.938H412.322C412.264 426.363 412.1 425.895 411.83 425.531C411.572 425.168 411.256 424.898 410.881 424.723C410.506 424.535 410.113 424.441 409.703 424.441C409.141 424.441 408.654 424.594 408.244 424.898C407.834 425.191 407.518 425.584 407.295 426.076C407.072 426.557 406.961 427.084 406.961 427.658C406.961 428.221 407.084 428.748 407.33 429.24C407.588 429.721 407.951 430.113 408.42 430.418C408.889 430.711 409.434 430.857 410.055 430.857C410.688 430.857 411.273 430.699 411.812 430.383C412.363 430.055 412.826 429.697 413.201 429.311V430.875C413.037 431.074 412.791 431.285 412.463 431.508C412.146 431.719 411.777 431.895 411.355 432.035C410.945 432.188 410.512 432.264 410.055 432.264ZM416.119 432V423.211H417.561V432H416.119ZM417.561 426.691V424.969C417.9 424.383 418.311 423.914 418.791 423.562C419.271 423.211 419.764 423.035 420.268 423.035C420.607 423.035 420.912 423.094 421.182 423.211V424.881C421.006 424.775 420.824 424.693 420.637 424.635C420.449 424.576 420.256 424.547 420.057 424.547C419.459 424.547 418.973 424.758 418.598 425.18C418.234 425.602 417.889 426.105 417.561 426.691Z" fill="#6B7280"/>
<path d="M75.1084 403.27C74.4196 403.27 73.7308 403.247 73.042 403.202C72.3682 403.157 71.7093 403.09 71.0654 403C70.4365 402.895 69.8151 402.79 69.2012 402.686V388.176C70.1296 388.011 71.0654 387.876 72.0088 387.771C72.9671 387.652 73.9554 387.592 74.9736 387.592C76.5908 387.592 77.9909 387.921 79.1738 388.58C80.3717 389.224 81.3001 390.13 81.959 391.298C82.6178 392.451 82.9473 393.799 82.9473 395.341C82.9473 396.449 82.7676 397.482 82.4082 398.44C82.0488 399.399 81.5322 400.245 80.8584 400.979C80.1846 401.697 79.361 402.259 78.3877 402.663C77.4144 403.067 76.3213 403.27 75.1084 403.27ZM75.0186 400.552C76.0518 400.552 76.9352 400.327 77.6689 399.878C78.4176 399.429 78.9867 398.815 79.376 398.036C79.7803 397.257 79.9824 396.389 79.9824 395.431C79.9824 394.442 79.7803 393.566 79.376 392.803C78.9867 392.024 78.4176 391.418 77.6689 390.983C76.9352 390.534 76.0518 390.31 75.0186 390.31C74.5544 390.31 74.0677 390.332 73.5586 390.377C73.0495 390.422 72.5628 390.482 72.0986 390.557V400.305C72.5778 400.38 73.0719 400.439 73.5811 400.484C74.0902 400.529 74.5693 400.552 75.0186 400.552ZM85.7549 403V391.68H88.4053V403H85.7549ZM88.4053 396.576V393.836C88.8096 393.147 89.2812 392.578 89.8203 392.129C90.3743 391.68 90.9883 391.455 91.6621 391.455C92.0814 391.455 92.4482 391.53 92.7627 391.68V394.667C92.5381 394.532 92.306 394.427 92.0664 394.353C91.8268 394.278 91.5648 394.24 91.2803 394.24C90.6064 394.24 90.0449 394.465 89.5957 394.914C89.1615 395.363 88.7646 395.917 88.4053 396.576ZM96.3564 403.404C95.8773 403.404 95.4655 403.232 95.1211 402.888C94.7767 402.543 94.6045 402.132 94.6045 401.652C94.6045 401.173 94.7767 400.761 95.1211 400.417C95.4655 400.073 95.8773 399.9 96.3564 399.9C96.8506 399.9 97.2624 400.073 97.5918 400.417C97.9362 400.761 98.1084 401.173 98.1084 401.652C98.1084 402.132 97.9362 402.543 97.5918 402.888C97.2624 403.232 96.8506 403.404 96.3564 403.404ZM108.463 403V387.951H119.087V390.489H111.36V400.417H119.087V403H108.463ZM110.17 396.576V394.083H118.211V396.576H110.17ZM122.434 403V391.68H125.084V403H122.434ZM125.084 396.576V393.836C125.488 393.147 125.96 392.578 126.499 392.129C127.053 391.68 127.667 391.455 128.341 391.455C128.76 391.455 129.127 391.53 129.441 391.68V394.667C129.217 394.532 128.985 394.427 128.745 394.353C128.506 394.278 128.243 394.24 127.959 394.24C127.285 394.24 126.724 394.465 126.274 394.914C125.84 395.363 125.443 395.917 125.084 396.576ZM133.889 389.568C133.38 389.568 132.938 389.389 132.563 389.029C132.204 388.655 132.024 388.221 132.024 387.727C132.024 387.217 132.204 386.783 132.563 386.424C132.938 386.064 133.38 385.885 133.889 385.885C134.233 385.885 134.548 385.967 134.832 386.132C135.117 386.297 135.341 386.521 135.506 386.806C135.686 387.09 135.775 387.397 135.775 387.727C135.775 388.041 135.686 388.348 135.506 388.647C135.341 388.932 135.117 389.157 134.832 389.321C134.548 389.486 134.233 389.568 133.889 389.568ZM132.855 403V391.68H135.506V403H132.855ZM131.036 393.971V391.68H135.506V393.971H131.036ZM144.243 403.337C143.39 403.337 142.604 403.18 141.885 402.865C141.166 402.551 140.537 402.117 139.998 401.562C139.459 401.008 139.04 400.38 138.74 399.676C138.456 398.957 138.313 398.201 138.313 397.407C138.313 396.614 138.456 395.857 138.74 395.139C139.04 394.42 139.459 393.784 139.998 393.229C140.537 392.66 141.166 392.219 141.885 391.904C142.604 391.575 143.39 391.41 144.243 391.41C145.097 391.41 145.793 391.545 146.332 391.814C146.886 392.084 147.305 392.339 147.59 392.578V395.049C147.201 394.764 146.759 394.525 146.265 394.33C145.771 394.12 145.164 394.016 144.445 394.016C143.831 394.016 143.27 394.165 142.761 394.465C142.252 394.764 141.847 395.169 141.548 395.678C141.263 396.187 141.121 396.763 141.121 397.407C141.121 398.036 141.263 398.605 141.548 399.114C141.832 399.623 142.222 400.028 142.716 400.327C143.225 400.627 143.801 400.776 144.445 400.776C145.164 400.776 145.771 400.679 146.265 400.484C146.759 400.275 147.201 400.028 147.59 399.743V402.214C147.305 402.468 146.886 402.723 146.332 402.978C145.793 403.217 145.097 403.337 144.243 403.337ZM163.312 403.27C162.669 403.27 161.972 403.24 161.224 403.18C160.49 403.12 159.786 403.045 159.112 402.955C158.438 402.865 157.862 402.768 157.383 402.663V388.153C158.221 387.974 159.12 387.839 160.078 387.749C161.036 387.644 162.002 387.592 162.976 387.592C164.174 387.592 165.199 387.779 166.053 388.153C166.906 388.513 167.565 389.014 168.029 389.658C168.493 390.302 168.726 391.043 168.726 391.882C168.726 392.631 168.523 393.297 168.119 393.881C167.73 394.465 167.228 394.914 166.614 395.229C167.063 395.348 167.498 395.543 167.917 395.812C168.351 396.082 168.703 396.449 168.973 396.913C169.242 397.377 169.377 397.969 169.377 398.688C169.377 399.526 169.137 400.297 168.658 401.001C168.179 401.69 167.483 402.244 166.569 402.663C165.671 403.067 164.585 403.27 163.312 403.27ZM163.268 400.731C164.181 400.731 164.922 400.529 165.491 400.125C166.06 399.721 166.345 399.189 166.345 398.53C166.345 397.856 166.053 397.362 165.469 397.048C164.9 396.718 164.174 396.554 163.29 396.554H159.786V394.353H163.335C164.144 394.353 164.757 394.15 165.177 393.746C165.611 393.342 165.828 392.84 165.828 392.241C165.828 391.807 165.701 391.44 165.446 391.141C165.207 390.826 164.877 390.587 164.458 390.422C164.054 390.257 163.582 390.175 163.043 390.175C162.534 390.175 162.04 390.197 161.561 390.242C161.096 390.272 160.67 390.325 160.28 390.399V400.462C160.58 400.522 160.917 400.574 161.291 400.619C161.665 400.664 162.032 400.694 162.392 400.709C162.751 400.724 163.043 400.731 163.268 400.731ZM172.117 403V386.828H174.768V403H172.117ZM183.572 403.337C182.734 403.337 181.948 403.187 181.214 402.888C180.495 402.573 179.859 402.146 179.305 401.607C178.751 401.068 178.316 400.439 178.002 399.721C177.688 398.987 177.53 398.208 177.53 397.385C177.53 396.546 177.688 395.768 178.002 395.049C178.316 394.33 178.751 393.701 179.305 393.162C179.859 392.608 180.495 392.181 181.214 391.882C181.948 391.567 182.734 391.41 183.572 391.41C184.396 391.41 185.167 391.567 185.886 391.882C186.619 392.181 187.263 392.608 187.817 393.162C188.386 393.701 188.821 394.33 189.12 395.049C189.435 395.768 189.592 396.546 189.592 397.385C189.592 398.208 189.435 398.987 189.12 399.721C188.821 400.439 188.386 401.068 187.817 401.607C187.263 402.146 186.619 402.573 185.886 402.888C185.167 403.187 184.396 403.337 183.572 403.337ZM183.572 400.776C184.171 400.776 184.71 400.642 185.189 400.372C185.684 400.088 186.073 399.691 186.357 399.182C186.642 398.673 186.784 398.074 186.784 397.385C186.784 396.681 186.642 396.075 186.357 395.565C186.073 395.056 185.684 394.667 185.189 394.397C184.71 394.113 184.171 393.971 183.572 393.971C182.988 393.971 182.449 394.113 181.955 394.397C181.461 394.667 181.064 395.056 180.765 395.565C180.48 396.075 180.338 396.681 180.338 397.385C180.338 398.074 180.48 398.673 180.765 399.182C181.064 399.691 181.461 400.088 181.955 400.372C182.449 400.642 182.988 400.776 183.572 400.776ZM197.498 403.337C196.645 403.337 195.858 403.18 195.14 402.865C194.421 402.551 193.792 402.117 193.253 401.562C192.714 401.008 192.295 400.38 191.995 399.676C191.711 398.957 191.568 398.201 191.568 397.407C191.568 396.614 191.711 395.857 191.995 395.139C192.295 394.42 192.714 393.784 193.253 393.229C193.792 392.66 194.421 392.219 195.14 391.904C195.858 391.575 196.645 391.41 197.498 391.41C198.352 391.41 199.048 391.545 199.587 391.814C200.141 392.084 200.56 392.339 200.845 392.578V395.049C200.455 394.764 200.014 394.525 199.52 394.33C199.025 394.12 198.419 394.016 197.7 394.016C197.086 394.016 196.525 394.165 196.016 394.465C195.507 394.764 195.102 395.169 194.803 395.678C194.518 396.187 194.376 396.763 194.376 397.407C194.376 398.036 194.518 398.605 194.803 399.114C195.087 399.623 195.477 400.028 195.971 400.327C196.48 400.627 197.056 400.776 197.7 400.776C198.419 400.776 199.025 400.679 199.52 400.484C200.014 400.275 200.455 400.028 200.845 399.743V402.214C200.56 402.468 200.141 402.723 199.587 402.978C199.048 403.217 198.352 403.337 197.498 403.337ZM205.584 400.237V397.205L210.952 391.68H214.209L205.584 400.237ZM203.473 403V386.828H206.123V403H203.473ZM211.132 403L206.932 397.542L208.616 395.7L214.479 403H211.132Z" fill="#0E384C"/>
</g>
<defs>
<filter id="filter0_d_105_211" x="0.200001" y="0.200001" width="534.6" height="499.6" filterUnits="userSpaceOnUse" color-interpolation-filters="sRGB">
<feFlood flood-opacity="0" result="BackgroundImageFix"/>
<feColorMatrix in="SourceAlpha" type="matrix" values="0 0 0 0 0 0 0 0 0 0 0 0 0 0 0 0 0 0 127 0" result="hardAlpha"/>
<feOffset/>
<feGaussianBlur stdDeviation="20.4"/>
<feComposite in2="hardAlpha" operator="out"/>
<feColorMatrix type="matrix" values="0 0 0 0 0.156863 0 0 0 0 0.184314 0 0 0 0 0.352941 0 0 0 0.1 0"/>
<feBlend mode="normal" in2="BackgroundImageFix" result="effect1_dropShadow_105_211"/>
<feBlend mode="normal" in="SourceGraphic" in2="effect1_dropShadow_105_211" result="shape"/>
</filter>
</defs>
</svg>
