<svg width="170" height="56" viewBox="0 0 170 56" fill="none" xmlns="http://www.w3.org/2000/svg">
<path d="M50.614 19.2153C52.474 22.6503 53.53 26.5845 53.53 30.7651C53.5298 44.1801 42.6551 55.0549 29.24 55.0551C15.8248 55.0551 4.9492 44.1802 4.94897 30.7651C4.94897 27.368 5.64669 24.1336 6.90601 21.1977C6.62541 22.6178 6.4783 24.0859 6.47827 25.5883C6.47827 38.0292 16.5638 48.1147 29.0046 48.1147C41.4453 48.1145 51.53 38.0291 51.53 25.5883C51.53 23.3747 51.2091 21.2362 50.614 19.2153Z" fill="#072B73"/>
<path d="M42.8621 21.5965C41.8672 24.5397 37.85 30.8892 29.614 33.3602C24.619 34.8587 22.5213 35.9859 21.4529 37.0213C20.9334 37.5248 20.6392 38.0247 20.3699 38.5985C20.1106 39.1509 19.8296 39.8861 19.405 40.6444C19.2376 40.9436 19.0738 41.3992 18.8875 42.0174C18.697 42.6492 18.5209 43.3174 18.281 44.1336C17.8187 45.7064 17.1955 47.5581 16.156 49.2762C15.112 51.0017 13.6412 52.604 11.4841 53.6629C9.33025 54.7202 6.54568 55.2094 2.91675 54.8026H2.91577L2.90698 54.8016C2.88258 54.7988 2.85827 54.7947 2.83374 54.7918C2.82565 54.7908 2.81739 54.791 2.80933 54.7899L2.97632 53.5067C2.9958 53.5089 3.01545 53.5113 3.03491 53.5135C3.41954 53.5454 4.3545 53.291 5.47632 51.8358C6.58477 50.3977 7.80527 47.8636 8.73999 43.6004C9.71603 39.1488 10.9423 36.2164 12.071 34.2635C13.2052 32.3013 14.2293 31.349 14.7507 30.8582C16.6475 28.9166 23.2086 24.7411 34.991 22.5223L42.0935 20.7616L43.241 20.4774L42.8621 21.5965Z" fill="url(#paint0_linear_59_812)" stroke="white" stroke-width="1.29393"/>
<path d="M9.42992 43.7979C12.2531 38.2928 19.7814 35.701 23.1927 35.0932C17.7817 38.3869 19.3109 41.857 15.7231 48.7384C12.853 54.2435 6.09706 54.7179 3.07788 54.267C5.0776 54.2082 6.66561 51.2674 7.4302 49.797C8.04188 48.6207 9.01822 45.3075 9.42992 43.7979Z" fill="#00748B"/>
<path d="M24.8988 31.7998C34.6386 29.9177 40.5632 24.0754 42.3081 21.3895L35.2502 23.2128C28.9452 24.295 24.2518 26.0947 22.6638 26.8005C12.7828 30.5059 10.391 38.0734 9.90088 42.0337C10.8419 39.4066 15.159 33.6819 24.8988 31.7998Z" fill="url(#paint1_linear_59_812)"/>
<path d="M3.6711 37.8518C1.74064 34.4581 0.601975 30.5497 0.513638 26.3721C0.230031 12.9598 10.8725 1.85678 24.2847 1.57296C37.6971 1.28935 48.8002 11.9326 49.0838 25.345C49.1557 28.7427 48.5255 31.9917 47.3276 34.9546C47.5786 33.5276 47.6961 32.0555 47.6643 30.552C47.4013 18.1139 37.1048 8.24385 24.6667 8.50686C12.2287 8.76992 2.35863 19.0663 2.62163 31.5044C2.66841 33.7158 3.0344 35.8453 3.6711 37.8518Z" fill="#072B73"/>
<path d="M52.0713 3.33992C52.0288 7.24811 48.839 15.2591 36.9492 18.4845C33.3014 19.474 30.3404 20.1318 27.8945 20.6593C25.4384 21.1889 23.5339 21.5815 21.957 22.047C20.3914 22.5091 19.1918 23.0316 18.1484 23.7989C17.1062 24.5655 16.1833 25.6035 15.2129 27.1446L13.96 29.1348L14.0186 26.7843C14.1226 22.624 17.2923 13.6826 28.8936 10.2989C35.9664 8.23598 39.9563 7.67379 42.8799 6.9825C45.769 6.29936 47.7401 5.47493 51.0186 2.82918L52.0859 1.96785L52.0713 3.33992Z" fill="url(#paint2_linear_59_812)" stroke="white" stroke-width="1.29393"/>
<path d="M33.8385 18.5664C47.6718 15.9315 51.287 7.46998 51.3654 3.56857C47.1896 9.50891 44.2488 13.92 29.7803 16.6255C18.2054 18.7899 14.802 24.2323 14.5471 26.6829C16.3704 24.2715 16.5468 21.8601 33.8385 18.5664Z" fill="url(#paint3_linear_59_812)"/>
<path d="M63.1052 38.5573V18.5925H76.1568V21.1254H65.787V38.5573H63.1052ZM65.1911 30.333V27.8001H74.3689V30.333H65.1911ZM81.0735 38.5573V18.5925H83.7553V36.0244H94.7508V38.5573H81.0735ZM108.1 39.0042C106.591 39.0042 105.2 38.7361 103.929 38.1997C102.657 37.6435 101.545 36.8886 100.591 35.935C99.6377 34.9815 98.8927 33.879 98.3564 32.6274C97.8399 31.3561 97.5816 30.0052 97.5816 28.5749C97.5816 27.1446 97.8399 25.8037 98.3564 24.5522C98.8927 23.2808 99.6377 22.1683 100.591 21.2148C101.545 20.2612 102.657 19.5163 103.929 18.9799C105.2 18.4237 106.591 18.1456 108.1 18.1456C109.61 18.1456 111.001 18.4237 112.272 18.9799C113.543 19.5163 114.656 20.2612 115.609 21.2148C116.563 22.1683 117.298 23.2808 117.815 24.5522C118.351 25.8037 118.619 27.1446 118.619 28.5749C118.619 30.0052 118.351 31.3561 117.815 32.6274C117.298 33.879 116.563 34.9815 115.609 35.935C114.656 36.8886 113.543 37.6435 112.272 38.1997C111.001 38.7361 109.61 39.0042 108.1 39.0042ZM108.1 36.382C109.59 36.382 110.921 36.0443 112.093 35.3689C113.265 34.6736 114.189 33.7399 114.865 32.5678C115.54 31.3958 115.878 30.0648 115.878 28.5749C115.878 27.085 115.54 25.754 114.865 24.5819C114.189 23.39 113.265 22.4563 112.093 21.7809C110.921 21.1055 109.59 20.7678 108.1 20.7678C106.61 20.7678 105.279 21.1055 104.107 21.7809C102.935 22.4563 102.012 23.39 101.336 24.5819C100.661 25.754 100.323 27.085 100.323 28.5749C100.323 30.0648 100.661 31.3958 101.336 32.5678C102.012 33.7399 102.935 34.6736 104.107 35.3689C105.279 36.0443 106.61 36.382 108.1 36.382ZM123.387 38.5573V18.5925H124.221L132.743 27.7406L141.117 18.5925H141.951V38.5573H139.269V24.1052L133.101 30.6906H132.386L126.069 24.1052V38.5573H123.387ZM157.237 39.0042C155.728 39.0042 154.337 38.7361 153.066 38.1997C151.794 37.6435 150.682 36.8886 149.728 35.935C148.775 34.9815 148.03 33.879 147.494 32.6274C146.977 31.3561 146.719 30.0052 146.719 28.5749C146.719 27.1446 146.977 25.8037 147.494 24.5522C148.03 23.2808 148.775 22.1683 149.728 21.2148C150.682 20.2612 151.794 19.5163 153.066 18.9799C154.337 18.4237 155.728 18.1456 157.237 18.1456C158.747 18.1456 160.138 18.4237 161.409 18.9799C162.681 19.5163 163.793 20.2612 164.747 21.2148C165.7 22.1683 166.435 23.2808 166.952 24.5522C167.488 25.8037 167.756 27.1446 167.756 28.5749C167.756 30.0052 167.488 31.3561 166.952 32.6274C166.435 33.879 165.7 34.9815 164.747 35.935C163.793 36.8886 162.681 37.6435 161.409 38.1997C160.138 38.7361 158.747 39.0042 157.237 39.0042ZM157.237 36.382C158.727 36.382 160.058 36.0443 161.23 35.3689C162.403 34.6736 163.326 33.7399 164.002 32.5678C164.677 31.3958 165.015 30.0648 165.015 28.5749C165.015 27.085 164.677 25.754 164.002 24.5819C163.326 23.39 162.403 22.4563 161.23 21.7809C160.058 21.1055 158.727 20.7678 157.237 20.7678C155.748 20.7678 154.417 21.1055 153.245 21.7809C152.072 22.4563 151.149 23.39 150.473 24.5819C149.798 25.754 149.46 27.085 149.46 28.5749C149.46 30.0648 149.798 31.3958 150.473 32.5678C151.149 33.7399 152.072 34.6736 153.245 35.3689C154.417 36.0443 155.748 36.382 157.237 36.382Z" fill="#011640"/>
<defs>
<linearGradient id="paint0_linear_59_812" x1="42.229" y1="22.468" x2="9.23369" y2="42.1711" gradientUnits="userSpaceOnUse">
<stop stop-color="#034451"/>
<stop offset="1" stop-color="#38E4DD"/>
</linearGradient>
<linearGradient id="paint1_linear_59_812" x1="42.3464" y1="21.4093" x2="10.9391" y2="39.0539" gradientUnits="userSpaceOnUse">
<stop stop-color="#004952"/>
<stop offset="1" stop-color="#51E8DC"/>
</linearGradient>
<linearGradient id="paint2_linear_59_812" x1="51.4041" y1="4.35276" x2="14.7034" y2="25.9968" gradientUnits="userSpaceOnUse">
<stop stop-color="#072B73"/>
<stop offset="1" stop-color="#2DA0F3"/>
</linearGradient>
<linearGradient id="paint3_linear_59_812" x1="49.3453" y1="9.4111" x2="16.8793" y2="23.0562" gradientUnits="userSpaceOnUse">
<stop stop-color="#072B73"/>
<stop offset="1" stop-color="#5881D0"/>
</linearGradient>
</defs>
</svg>
