<svg width="48" height="48" viewBox="0 0 48 48" fill="none" xmlns="http://www.w3.org/2000/svg">
<path d="M20.2667 6.25H15.625C14.3818 6.25 13.1895 6.74386 12.3104 7.62294C11.4314 8.50201 10.9375 9.6943 10.9375 10.9375V39.0625C10.9375 40.3057 11.4314 41.498 12.3104 42.3771C13.1895 43.2561 14.3818 43.75 15.625 43.75H34.375C35.6182 43.75 36.8105 43.2561 37.6896 42.3771C38.5686 41.498 39.0625 40.3057 39.0625 39.0625V25M20.2667 6.25C22.8562 6.25 25 8.34792 25 10.9375V15.625C25 16.8682 25.4939 18.0605 26.3729 18.9396C27.252 19.8186 28.4443 20.3125 29.6875 20.3125H34.375C35.6182 20.3125 36.8105 20.8064 37.6896 21.6854C38.5686 22.5645 39.0625 23.7568 39.0625 25M20.2667 6.25C27.9542 6.25 39.0625 17.4167 39.0625 25" stroke="#072B73" stroke-width="2" stroke-linecap="round" stroke-linejoin="round"/>
</svg>
