<svg width="40" height="40" viewBox="0 0 40 40" fill="none" xmlns="http://www.w3.org/2000/svg">
<path d="M20.0001 5.91675C17.6731 4.64708 14.4036 2.66675 11.3334 2.66675C6.78342 2.66675 2.66675 5.36858 2.66675 13.5001C2.66675 24.1146 4.95475 31.7218 8.45391 36.3303C9.69542 37.9683 12.7222 37.4591 14.0157 35.8189C14.8781 34.724 15.7895 32.7011 16.7501 29.7501C17.3827 28.0796 18.6827 26.4914 20.0001 26.5001C21.3044 26.5001 22.6217 28.0969 23.2501 29.7501C24.2106 32.7011 25.1221 34.7233 25.9844 35.8167C27.2779 37.4612 30.3178 37.9683 31.5463 36.3303C35.0454 31.7218 37.3334 24.1167 37.3334 13.5001C37.3334 5.39675 33.1994 2.66675 28.6667 2.66675C25.5836 2.66675 22.3401 4.64058 20.0001 5.91675ZM20.0001 5.91675L26.5001 9.16675" stroke="white" stroke-width="4.33333" stroke-linecap="round" stroke-linejoin="round"/>
</svg>
