<svg width="38" height="36" viewBox="0 0 38 36" fill="none" xmlns="http://www.w3.org/2000/svg">
<path d="M24.2499 32.5833C26.7499 24.9208 29.5124 22.1562 36.7499 20.0833C29.5124 18.0103 26.7499 15.2458 24.2499 7.58325C21.7499 15.2458 18.9874 18.0103 11.7499 20.0833C18.9874 22.1562 21.7499 24.9208 24.2499 32.5833ZM7.58325 13.8333C8.83325 9.99992 10.2145 8.61867 13.8333 7.58325C10.2145 6.54784 8.83325 5.16659 7.58325 1.33325C6.33325 5.16659 4.952 6.54784 1.33325 7.58325C4.952 8.61867 6.33325 9.99992 7.58325 13.8333ZM10.7083 34.6666C11.3333 32.7499 12.0228 32.0603 13.8333 31.5416C12.0228 31.0228 11.3333 30.3333 10.7083 28.4166C10.0833 30.3333 9.39367 31.0228 7.58325 31.5416C9.39367 32.0603 10.0833 32.7499 10.7083 34.6666Z" stroke="#072B73" stroke-width="2.2" stroke-linejoin="round"/>
</svg>
