<svg width="32" height="32" viewBox="0 0 32 32" fill="none" xmlns="http://www.w3.org/2000/svg">
<path d="M15.9993 2.66663C23.3633 2.66663 29.3327 8.63596 29.3327 16C29.3327 23.364 23.3633 29.3333 15.9993 29.3333C8.63535 29.3333 2.66602 23.364 2.66602 16C2.66602 8.63596 8.63535 2.66663 15.9993 2.66663ZM15.9993 5.33329C13.1704 5.33329 10.4573 6.4571 8.45688 8.45749C6.45649 10.4579 5.33268 13.171 5.33268 16C5.33268 18.8289 6.45649 21.542 8.45688 23.5424C10.4573 25.5428 13.1704 26.6666 15.9993 26.6666C18.8283 26.6666 21.5414 25.5428 23.5418 23.5424C25.5422 21.542 26.666 18.8289 26.666 16C26.666 13.171 25.5422 10.4579 23.5418 8.45749C21.5414 6.4571 18.8283 5.33329 15.9993 5.33329ZM15.9993 20C16.353 20 16.6921 20.1404 16.9422 20.3905C17.1922 20.6405 17.3327 20.9797 17.3327 21.3333C17.3327 21.6869 17.1922 22.0261 16.9422 22.2761C16.6921 22.5261 16.353 22.6666 15.9993 22.6666C15.6457 22.6666 15.3066 22.5261 15.0565 22.2761C14.8065 22.0261 14.666 21.6869 14.666 21.3333C14.666 20.9797 14.8065 20.6405 15.0565 20.3905C15.3066 20.1404 15.6457 20 15.9993 20ZM15.9993 7.99996C16.353 7.99996 16.6921 8.14044 16.9422 8.39048C17.1922 8.64053 17.3327 8.97967 17.3327 9.33329V17.3333C17.3327 17.6869 17.1922 18.0261 16.9422 18.2761C16.6921 18.5261 16.353 18.6666 15.9993 18.6666C15.6457 18.6666 15.3066 18.5261 15.0565 18.2761C14.8065 18.0261 14.666 17.6869 14.666 17.3333V9.33329C14.666 8.97967 14.8065 8.64053 15.0565 8.39048C15.3066 8.14044 15.6457 7.99996 15.9993 7.99996Z" fill="#B94343"/>
</svg>
